<svg width="65" height="66" viewBox="0 0 65 66" fill="none" xmlns="http://www.w3.org/2000/svg">
<path d="M32.5 0C14.5464 0 0 14.7422 0 32.9375C0 51.1328 14.5464 65.875 32.5 65.875C50.4536 65.875 65 51.1328 65 32.9375C65 14.7422 50.4536 0 32.5 0ZM32.5 59.5C18.0454 59.5 6.29032 47.5867 6.29032 32.9375C6.29032 18.2883 18.0454 6.375 32.5 6.375C46.9546 6.375 58.7097 18.2883 58.7097 32.9375C58.7097 47.5867 46.9546 59.5 32.5 59.5ZM46.3387 39.3922C42.9446 40.4945 37.8992 41.132 32.5 41.132C27.1008 41.132 22.0685 40.4945 18.6613 39.3922C17.3639 38.9805 16.1189 40.1094 16.3417 41.4242C17.377 47.6797 25.6855 52.0492 32.5 52.0492C39.3145 52.0492 47.6099 47.6797 48.6583 41.4242C48.8679 40.1227 47.6492 38.9805 46.3387 39.3922ZM22.0161 30.8125C24.3357 30.8125 26.2097 28.9133 26.2097 26.5625C26.2097 24.2117 24.3357 22.3125 22.0161 22.3125C19.6966 22.3125 17.8226 24.2117 17.8226 26.5625C17.8226 28.9133 19.6966 30.8125 22.0161 30.8125ZM42.9839 30.8125C45.3034 30.8125 47.1774 28.9133 47.1774 26.5625C47.1774 24.2117 45.3034 22.3125 42.9839 22.3125C40.6643 22.3125 38.7903 24.2117 38.7903 26.5625C38.7903 28.9133 40.6643 30.8125 42.9839 30.8125Z" fill="black"/>
</svg>
