<svg width="42" height="40" viewBox="0 0 42 40" fill="none" xmlns="http://www.w3.org/2000/svg">
<path d="M23.6252 4.99967C23.6252 4.07884 22.4501 3.33301 21.0002 3.33301C19.5504 3.33301 18.3752 4.07884 18.3752 4.99967C18.3752 5.77217 19.2502 12.593 19.2502 13.0555C19.2502 13.6688 20.0334 14.1663 21.0002 14.1663C21.9671 14.1663 22.7502 13.6688 22.7502 13.0555C22.7502 12.593 23.6252 5.77217 23.6252 4.99967ZM18.3752 34.9997C18.3752 35.9205 19.5504 36.6663 21.0002 36.6663C22.4501 36.6663 23.6252 35.9205 23.6252 34.9997C23.6252 34.2272 22.7502 27.4063 22.7502 26.9438C22.7502 26.3305 21.9671 25.833 21.0002 25.833C20.0334 25.833 19.2502 26.3305 19.2502 26.9438C19.2502 27.4063 18.3752 34.2272 18.3752 34.9997ZM8.56735 10.1555C7.72998 9.69551 6.46385 10.2913 5.73935 11.4872C5.01485 12.683 5.10498 14.0255 5.94235 14.4855C6.64498 14.8722 13.2845 17.5605 13.7054 17.7913C14.2636 18.098 15.1071 17.7005 15.591 16.9038C16.074 16.1063 16.0136 15.2113 15.4554 14.9047C15.0345 14.673 9.27085 10.5413 8.56735 10.1555ZM33.4331 29.8438C34.2705 30.3038 35.5366 29.708 36.2611 28.5122C36.9856 27.3163 36.8955 25.9738 36.0581 25.5138C35.3555 25.1272 28.716 22.4388 28.2951 22.208C27.7369 21.9013 26.8934 22.2988 26.4095 23.0955C25.9265 23.893 25.9869 24.788 26.5451 25.0947C26.966 25.3263 32.7296 29.458 33.4331 29.8438ZM33.4331 10.1555C34.2705 9.69551 35.5366 10.2913 36.2611 11.4872C36.9856 12.683 36.8955 14.0255 36.0581 14.4855C35.3555 14.8722 28.716 17.5605 28.2951 17.7913C27.7369 18.098 26.8934 17.7005 26.4095 16.9038C25.9265 16.1063 25.9869 15.2113 26.5451 14.9047C26.966 14.673 32.7296 10.5413 33.4331 10.1555ZM8.56735 29.8438C7.72998 30.3038 6.46385 29.708 5.73935 28.5122C5.01485 27.3163 5.10498 25.9738 5.94235 25.5138C6.64498 25.1272 13.2845 22.4388 13.7054 22.208C14.2636 21.9013 15.1071 22.2988 15.591 23.0955C16.074 23.893 16.0136 24.788 15.4554 25.0947C15.0345 25.3263 9.27085 29.458 8.56735 29.8438Z" fill="#FBC02D"/>
</svg>
