<svg width="41" height="38" viewBox="0 0 41 38" fill="none" xmlns="http://www.w3.org/2000/svg">
<path d="M13.1222 17.28C12.1124 16.968 11.1026 16.8096 10.1203 16.8096C8.60346 16.8096 7.33776 17.1816 6.35634 17.6372C7.30249 13.9199 9.57542 7.50582 14.1032 6.7835C14.5225 6.71658 14.8662 6.39119 14.9806 5.95318L15.9702 2.15467C16.0536 1.83343 16.0041 1.48958 15.8334 1.21081C15.6627 0.932034 15.3883 0.746032 15.0808 0.7008C14.7466 0.651876 14.406 0.626953 14.0684 0.626953C8.63356 0.626953 3.25122 6.71473 0.980012 15.4315C-0.35321 20.5454 -0.744144 28.2338 2.53988 33.0731C4.37758 35.781 7.05864 37.227 10.5087 37.3715C10.5229 37.3719 10.5366 37.3724 10.5508 37.3724C14.8077 37.3724 18.5824 34.2957 19.7307 29.8912C20.4167 27.2581 20.1066 24.4967 18.8568 22.1137C17.6203 19.7575 15.5839 18.0401 13.1222 17.28Z" fill="white"/>
<path d="M39.7695 22.1142C38.533 19.7575 36.4966 18.0401 34.0349 17.28C33.0251 16.968 32.0153 16.8096 31.0334 16.8096C29.5166 16.8096 28.2505 17.1816 27.269 17.6372C28.2152 13.9199 30.4881 7.50582 35.0163 6.7835C35.4357 6.71658 35.7789 6.39119 35.8937 5.95318L36.8833 2.15467C36.9667 1.83343 36.9173 1.48958 36.7465 1.21081C36.5762 0.932034 36.3018 0.746032 35.9939 0.7008C35.6602 0.651876 35.3195 0.626953 34.9815 0.626953C29.5467 0.626953 24.1643 6.71473 21.8927 15.4315C20.5599 20.5454 20.169 28.2338 23.4534 33.074C25.2907 35.7814 27.9722 37.2279 31.4218 37.3719C31.436 37.3724 31.4498 37.3729 31.4644 37.3729C35.7208 37.3729 39.496 34.2962 40.6443 29.8917C41.3294 27.2586 41.0188 24.4967 39.7695 22.1142Z" fill="white"/>
</svg>
