<svg width="50" height="46" viewBox="0 0 50 46" fill="none" xmlns="http://www.w3.org/2000/svg">
<path d="M26.0725 19.5818C26.8605 18.8101 28.1988 19.459 28.05 20.5406L26.4488 32.1765C26.3787 32.6855 25.9699 33.0859 25.4502 33.1545L13.5689 34.7227C12.4645 34.8684 11.8019 33.5577 12.59 32.786" fill="white"/>
<path d="M13.5115 36.1086C12.5738 36.1086 11.7303 35.5927 11.3024 34.7314C10.8223 33.7648 11.0065 32.6477 11.7717 31.8852C12.2914 31.3673 13.1343 31.3673 13.6542 31.8852C14.0658 32.2953 14.1515 32.9073 13.9113 33.4014L25.1097 31.8975L26.6188 20.738C26.123 20.9774 25.5088 20.8922 25.0971 20.4818C24.5774 19.9639 24.5774 19.1239 25.0971 18.606C25.8624 17.8434 26.9837 17.66 27.9534 18.1384C28.9232 18.6168 29.4564 19.6166 29.3118 20.6854L27.7296 32.3872C27.5808 33.4876 26.7057 34.3598 25.6013 34.5081L13.8582 36.0852C13.7417 36.1008 13.6258 36.1086 13.5115 36.1086Z" fill="black"/>
<path d="M43.3675 33.4102C42.8186 33.4102 42.3047 33.0693 42.1119 32.524C41.8678 31.833 42.2319 31.0757 42.9253 30.8323C45.5646 29.9064 47.338 27.4194 47.338 24.6437C47.338 21.496 45.0814 18.7871 41.9728 18.2022C41.6107 18.134 41.2933 17.9194 41.0957 17.6094C40.8983 17.2995 40.8387 16.9217 40.9311 16.5662C41.1669 15.6581 41.2866 14.7176 41.2866 13.7707C41.2866 7.64048 36.2819 2.65322 30.1304 2.65322C26.291 2.65322 22.7679 4.58446 20.7059 7.81944C20.3503 8.37716 19.6369 8.58911 19.033 8.31643C18.0817 7.88698 17.0686 7.66918 16.0218 7.66918C11.9919 7.66918 8.71328 10.9364 8.71328 14.9523C8.71328 15.5113 8.77939 16.0748 8.90986 16.6269C8.99189 16.9745 8.92978 17.3403 8.73789 17.6417C8.546 17.9432 8.23994 18.1547 7.88936 18.2286C4.86055 18.866 2.66211 21.5642 2.66211 24.6437C2.66211 27.1732 4.15781 29.506 6.47256 30.5869C7.13818 30.8976 7.425 31.6875 7.11318 32.3508C6.80137 33.0141 6.00898 33.3001 5.34316 32.9892C2.09736 31.4735 0 28.1976 0 24.6436C0 20.7483 2.50273 17.2878 6.10586 15.9837C6.06963 15.6401 6.05146 15.2956 6.05146 14.9518C6.05146 9.47313 10.5243 5.01586 16.022 5.01586C17.0725 5.01586 18.0982 5.17673 19.0842 5.49505C21.6903 2.03498 25.7434 0 30.1305 0C37.75 0 43.9487 6.17733 43.9487 13.7703C43.9487 14.4994 43.8912 15.2259 43.7772 15.9419C47.4516 17.2083 50 20.6781 50 24.6435C50 28.5426 47.5122 32.0353 43.8095 33.3345C43.6634 33.3858 43.514 33.4102 43.3675 33.4102Z" fill="black"/>
<path d="M23.0718 46.0008C22.3645 46.0008 21.6997 45.7264 21.1999 45.228L11.5134 35.5755C10.4812 34.5468 10.4812 32.8733 11.5134 31.8447L25.0562 18.3488C25.5563 17.8506 26.221 17.5762 26.9281 17.5762C27.6353 17.5762 28.3002 17.8506 28.8 18.349L38.4865 28.0015C38.9864 28.4997 39.2618 29.1621 39.2618 29.8669C39.2618 30.5717 38.9864 31.234 38.4863 31.7323L37.1919 33.0222C36.6721 33.5401 35.8293 33.5403 35.3095 33.0222C34.7898 32.5041 34.7896 31.6643 35.3095 31.1464L36.5934 29.867L26.928 20.2352L13.406 33.71L23.0715 43.3418L31.5572 34.8854C32.0769 34.3675 32.9198 34.3675 33.4397 34.8854C33.9594 35.4033 33.9594 36.2432 33.4397 36.7613L24.9435 45.228C24.4436 45.7264 23.7788 46.0008 23.0718 46.0008Z" fill="black"/>
</svg>
