<svg width="218" height="216" viewBox="0 0 218 216" fill="none" xmlns="http://www.w3.org/2000/svg">
<path d="M77.4817 131.232V10.3131C77.4817 4.62888 73.0142 0 67.5054 0H9.96223C4.44642 0 0 4.62888 0 10.3131V131.224C0 136.901 4.44642 141.516 9.96223 141.516H67.5054C73.0142 141.516 77.4817 136.908 77.4817 131.232ZM60.9413 6.46296C62.3695 6.46296 63.5092 7.63473 63.5092 9.09035C63.5092 10.5387 62.3695 11.7323 60.9413 11.7323C59.5483 11.7323 58.4085 10.5387 58.4085 9.09035C58.4085 7.63473 59.5412 6.46296 60.9413 6.46296ZM25.391 7.46006H52.0836V10.4732H25.391V7.46006ZM7.46464 108.822V17.402H70.0311V108.83H7.46464V108.822ZM38.7373 131.348C35.2266 131.348 32.3843 128.415 32.3843 124.776C32.3843 121.137 35.2266 118.204 38.7373 118.204C42.248 118.204 45.0904 121.144 45.0904 124.776C45.0904 128.415 42.241 131.348 38.7373 131.348Z" fill="black"/>
<path d="M152.094 84.3683H164.617V36.8423V23.8945H152.094H90.2871V36.8423H152.094V84.3683Z" fill="black"/>
<path d="M42.5515 150.242H30.0283V181.327V194.275H42.5515H80.529V181.327H42.5515V150.242Z" fill="black"/>
<path d="M209.564 91.3398H99.8178H91.3682V100.132V180.788V189.645H141.883L141.784 210.926L129.156 210.992V215.999H141.918H167.443H180.205V210.992L167.372 210.919V189.638H218V180.78V100.132V91.3398H209.564ZM210.964 180.992H99.7544V100.518H210.964V180.992Z" fill="black"/>
</svg>
